<?xml version="1.0" encoding="UTF-8"?>
<svg width="112px" height="24px" viewBox="0 0 112 24" version="1.1" xmlns="http://www.w3.org/2000/svg" xmlns:xlink="http://www.w3.org/1999/xlink">
    <title>Social Icons</title>
    <g id="Page-1" stroke="none" stroke-width="1" fill="none" fill-rule="evenodd">
        <g id="Artboard" transform="translate(-149.000000, -753.000000)">
            <g id="Hero-02">
                <g id="Social-Icons" transform="translate(149.000000, 753.000000)">
                    <g id="Icons-/-Social-/-Twitter">
                        <g id="Twitter">
                            <rect id="Rectangle" x="0" y="0" width="24" height="24"></rect>
                            <g transform="translate(4.000000, 5.000000)" fill="#18214D" id="twitter">
                                <path d="M5.032,14 C11.0696,14 14.372,8.61319646 14.372,3.94227869 C14.372,3.78893613 14.372,3.63645504 14.3624,3.48483543 C15.0048,2.9851799 15.5592,2.36491785 16,1.65506241 C15.4016,1.94107213 14.7656,2.12887369 14.1152,2.21157529 C14.8,1.76963859 15.3128,1.07528969 15.5584,0.25602691 C14.9136,0.667811988 14.2088,0.958129083 13.4736,1.11405607 C12.2304,-0.309100729 10.1512,-0.378018734 8.8288,0.960713508 C7.9768,1.82391152 7.6144,3.11095526 7.8792,4.33855721 C5.24,4.19555235 2.7808,2.85337421 1.1136,0.645413636 C0.2424,2.26067937 0.688,4.32649656 2.1304,5.36371253 C1.608,5.34734451 1.0968,5.1957249 0.64,4.92177583 L0.64,4.96657253 C0.6408,6.64903332 1.7424,8.09803437 3.2736,8.43142522 C2.7904,8.5735686 2.2832,8.59424401 1.792,8.49172847 C2.2216,9.93211477 3.4544,10.9185037 4.8584,10.9469324 C3.696,11.9307369 2.26,12.4648514 0.7816,12.4631285 C0.5208,12.462267 0.26,12.445899 0,12.4123015 C1.5016,13.4495174 3.248,14 5.032,13.9974156"></path>
                            </g>
                        </g>
                    </g>
                    <g id="Icons-/-Social-/-Linked-IN" transform="translate(44.000000, 0.000000)">
                        <g id="Linked-in">
                            <rect id="Rectangle-Copy" x="0" y="0" width="24" height="24"></rect>
                            <g id="Linked-IN" transform="translate(4.000000, 3.000000)" fill="#18214D">
                                <path d="M16,16 L12.9230769,16 L12.9230769,10.3967249 C12.9230769,8.85960699 12.2715385,8.00218341 11.1030769,8.00218341 C9.83153846,8.00218341 9.07692308,8.89563319 9.07692308,10.3967249 L9.07692308,16 L6,16 L6,5.59243086 L9.07692308,5.59243086 L9.07692308,6.7628821 C9.07692308,6.7628821 10.0423077,5 12.2176923,5 C14.3938462,5 16,6.38180495 16,9.24148472 L16,16 L16,16 Z M1.50030698,3 C0.67151332,3 0,2.32818533 0,1.49969518 C0,0.671814672 0.67151332,0 1.50030698,0 C2.32848626,0 2.99999958,0.671814672 2.99999958,1.49969518 C3.00061396,2.32818533 2.32848626,3 1.50030698,3 L1.50030698,3 Z M0,16 L3,16 L3,6 L0,6 L0,16 Z" id="linkedin"></path>
                            </g>
                        </g>
                    </g>
                    <g id="Icons-/-Social-/-Google" transform="translate(88.000000, 0.000000)">
                        <g id="Google">
                            <g id="Group-3">
                                <rect id="Rectangle-Copy-2" x="0" y="0" width="24" height="24"></rect>
                                <path d="M18.8750756,10.6027055 L12.1479088,10.6027055 C12.1479088,11.3023117 12.1479088,12.701524 12.1436204,13.4011302 L16.041832,13.4011302 C15.8924506,14.1007363 15.3628255,15.080185 14.614489,15.5734073 C14.6137742,15.5727077 14.6130595,15.577605 14.61163,15.5769054 C13.6167069,16.2338356 12.3037229,16.3828517 11.3288126,16.1869619 C9.80069083,15.8833329 8.59134465,14.7751567 8.1003158,13.3675491 C8.10317477,13.3654503 8.105319,13.3458613 8.10746323,13.3444621 C7.80012348,12.4713536 7.80012348,11.3023117 8.10746323,10.6027055 L8.10674849,10.6027055 C8.50271644,9.31682935 9.74851454,8.14358981 11.2787806,7.82247057 C12.5095691,7.56151747 13.8983159,7.84415837 14.9196845,8.79982039 C15.0554858,8.66689522 16.7994602,6.9640538 16.9302583,6.82553178 C13.44088,3.66541072 7.85372925,4.77708492 5.76310422,8.85788771 L5.76238947,8.85788771 C5.76238947,8.85788771 5.76310422,8.85788771 5.75881575,8.86558337 L5.75881575,8.86558337 C4.72458176,10.869955 4.76746638,13.2318255 5.76596319,15.1403511 C5.76310422,15.1424499 5.76095999,15.1438491 5.75881575,15.145948 C6.66368116,16.9019594 8.31045042,18.2487013 10.2945787,18.7615126 C12.4023575,19.3142015 15.0847903,18.9364142 16.8816557,17.3112291 C16.8823704,17.3119287 16.8830852,17.3126283 16.8837999,17.3133279 C18.4062038,15.9420998 19.3539538,13.6061148 18.8750756,10.6027055" id="google" fill="#18214D"></path>
                            </g>
                            <g transform="translate(5.000000, 5.000000)"></g>
                        </g>
                    </g>
                </g>
            </g>
        </g>
    </g>
</svg>